<svg width="206" height="206" viewBox="0 0 206 206" fill="none" xmlns="http://www.w3.org/2000/svg">
  <circle cx="103" cy="93" r="63" fill="url(#paint0_linear)" filter="url(#filter0_d)"/>
  <path fill-rule="evenodd" clip-rule="evenodd" d="M81.427 124.097a1.998 1.998 0 0 1-1.91-1.42l-17.43-57.09a2.002 2.002 0 1 1 3.83-1.17l17.003 55.69h58.587a1.999 1.999 0 1 1 0 4h-59.69c-.081 0-.162-.005-.242-.014a1.807 1.807 0 0 1-.148.004zm50.327-13.047a.493.493 0 0 0 .293.097c.052 0 .103-.01.15-.03a.492.492 0 0 0 .297-.246.492.492 0 0 0 .033-.384l-.13-.397 2.54-4.593a.48.48 0 0 0 .041-.377.5.5 0 0 0-.241-.293.501.501 0 0 0-.68.19l-2.098 3.803a58.218 58.218 0 0 0-53.603-38.6l3.091-2.613a.5.5 0 1 0-.64-.76l-4.25 3.53a.51.51 0 0 0-.06.71l3.54 4.24a.49.49 0 0 0 .38.18.482.482 0 0 0 .37-.11.52.52 0 0 0 .07-.71l-2.898-3.474a57.219 57.219 0 0 1 53.163 38.237l-4.265-2.363a.505.505 0 0 0-.68.2.516.516 0 0 0-.041.382.513.513 0 0 0 .241.298l5.07 2.81c.045.023.092.04.14.05a.493.493 0 0 0 .167.223z" fill="#fff"/>
  <defs>
    <filter id="filter0_d" x="0" y="0" width="206" height="206" filterUnits="userSpaceOnUse" color-interpolation-filters="sRGB">
      <feFlood flood-opacity="0" result="BackgroundImageFix"/>
      <feColorMatrix in="SourceAlpha" values="0 0 0 0 0 0 0 0 0 0 0 0 0 0 0 0 0 0 127 0"/>
      <feOffset dy="10"/>
      <feGaussianBlur stdDeviation="20"/>
      <feColorMatrix values="0 0 0 0 0.270588 0 0 0 0 0.682353 0 0 0 0 0.301961 0 0 0 1 0"/>
      <feBlend in2="BackgroundImageFix" result="effect1_dropShadow"/>
      <feBlend in="SourceGraphic" in2="effect1_dropShadow" result="shape"/>
    </filter>
    <linearGradient id="paint0_linear" x1="103" y1="30" x2="103" y2="156" gradientUnits="userSpaceOnUse">
      <stop stop-color="#8BB928"/>
      <stop offset="1" stop-color="#54B45B"/>
    </linearGradient>
  </defs>
</svg>
