<svg width="206" height="206" viewBox="0 0 206 206" fill="none" xmlns="http://www.w3.org/2000/svg">
  <circle cx="103" cy="93" r="63" fill="url(#paint0_linear)" filter="url(#filter0_d)"/>
  <path d="M117.33 129.19H86.4a3.001 3.001 0 0 1-2.94-3v-9.32h36.8v9.32a3 3 0 0 1-2.95 3h.02zM86.4 60.46h30.93a2.998 2.998 0 0 1 2.95 2.94v2H83.46v-2a2.94 2.94 0 0 1 2.94-2.94zm-2.94 7.35h36.8v46.66h-36.8V67.81zm33.87-9.77H86.4a5.4 5.4 0 0 0-5.4 5.4v62.8a5.41 5.41 0 0 0 5.4 5.41h30.93a5.412 5.412 0 0 0 5.4-5.41V63.4a5.4 5.4 0 0 0-5.4-5.4v.04z" fill="#fff"/>
  <path d="M101.87 125.51a2.462 2.462 0 0 1-.487-4.873 2.459 2.459 0 0 1 2.216 4.153 2.462 2.462 0 0 1-1.729.72zm0-7.36a4.907 4.907 0 0 0-4.536 3.031 4.91 4.91 0 1 0 9.446 1.879 4.923 4.923 0 0 0-4.91-4.91zM96.95 64.13h4.92a1.229 1.229 0 0 0 0-2.45h-4.92a1.23 1.23 0 0 0 0 2.45zM105.55 64.13h1.23a1.227 1.227 0 0 0 1.236-.729 1.23 1.23 0 0 0-1.236-1.721h-1.23a1.233 1.233 0 0 0-1.236.729 1.23 1.23 0 0 0 1.236 1.721zM116.6 110.78H94.5v-4.91h22.1v4.91zm-29.46 0v-4.91h4.9v4.91h-4.9zm7.36-7.36h-9.82v9.82h34.37v-9.82H94.5z" fill="#fff"/>
  <path d="M102.06 97.01c5.981 0 10.83-4.849 10.83-10.83s-4.849-10.83-10.83-10.83S91.23 80.2 91.23 86.18s4.849 10.83 10.83 10.83z" stroke="#fff" stroke-width="2" stroke-miterlimit="10"/>
  <path d="M99.96 91.46V80.9l7.47 5.28-7.47 5.28z" stroke="#fff" stroke-width="2" stroke-linejoin="round"/>
  <defs>
    <filter id="filter0_d" x="0" y="0" width="206" height="206" filterUnits="userSpaceOnUse" color-interpolation-filters="sRGB">
      <feFlood flood-opacity="0" result="BackgroundImageFix"/>
      <feColorMatrix in="SourceAlpha" values="0 0 0 0 0 0 0 0 0 0 0 0 0 0 0 0 0 0 127 0"/>
      <feOffset dy="10"/>
      <feGaussianBlur stdDeviation="20"/>
      <feColorMatrix values="0 0 0 0 0.270588 0 0 0 0 0.682353 0 0 0 0 0.301961 0 0 0 1 0"/>
      <feBlend in2="BackgroundImageFix" result="effect1_dropShadow"/>
      <feBlend in="SourceGraphic" in2="effect1_dropShadow" result="shape"/>
    </filter>
    <linearGradient id="paint0_linear" x1="103" y1="30" x2="103" y2="156" gradientUnits="userSpaceOnUse">
      <stop stop-color="#8BB928"/>
      <stop offset="1" stop-color="#45AE4C"/>
    </linearGradient>
  </defs>
</svg>
