<svg width="206" height="206" viewBox="0 0 206 206" fill="none" xmlns="http://www.w3.org/2000/svg">
  <circle cx="103" cy="93" r="63" fill="url(#paint0_linear)" filter="url(#filter0_d)"/>
  <path d="M136.9 123.9h-16.51v-4.4a12.415 12.415 0 0 0-.75-4.24 6.483 6.483 0 0 1 2-.66l3.91 3.9a1.422 1.422 0 0 0 1 .416 1.42 1.42 0 0 0 1-.416l3.9-3.9a6.534 6.534 0 0 1 3.908 2.215 6.535 6.535 0 0 1 1.552 4.215v2.83l-.01.04zm-22.19 0H88.27v-2.88h9.39a1.429 1.429 0 0 0 1.018-.422 1.428 1.428 0 0 0 .422-1.018 1.44 1.44 0 0 0-1.44-1.44h-9.28a9.391 9.391 0 0 1 8-7.89l5.48 5.49a1.45 1.45 0 0 0 2 0l5.48-5.49a9.394 9.394 0 0 1 8.17 9.25v4.36l-2.8.04zm-45.83-2.83a6.53 6.53 0 0 1 5.46-6.43l3.9 3.9a1.42 1.42 0 0 0 2 0l3.9-3.9a6.824 6.824 0 0 1 2 .66 12.172 12.172 0 0 0-.76 4.24v4.36h-16.5v-2.83zm6.62-17.85a2.52 2.52 0 0 1 2.5-2.52h5v1.8a1.559 1.559 0 0 1-1.56 1.56h-6v-.79l.06-.05zm4.69 11.34l-.93.93-.93-.93h1.86zm2.81-6.64a3.76 3.76 0 1 1-7.52 0v-1h6a4.312 4.312 0 0 0 1.56-.29v1.31l-.04-.02zm14.25-12.65a3.94 3.94 0 0 1 3.93-3.94h7.32v2.9a2.64 2.64 0 0 1-2.64 2.64h-8.59v-1.6h-.02zm8.13 14.9l-2.51 2.51-2.51-2.51h5.02zm-8.13-10.41h8.61a5.508 5.508 0 0 0 2.64-.68v2.58a5.631 5.631 0 1 1-11.25 0v-1.9zm25.5 3.46c0-.667.264-1.306.735-1.778a2.516 2.516 0 0 1 1.775-.742h5v1.8a1.557 1.557 0 0 1-1.56 1.56h-5.93v-.79l-.02-.05zm4.68 11.34l-.93.93-.92-.93h1.85zm2.83-6.64a3.76 3.76 0 1 1-7.51 0v-1h5.95a4.245 4.245 0 0 0 1.56-.29v1.31-.02zm1.63 3.88a6.575 6.575 0 0 0 1.25-3.88v-8.66a1.434 1.434 0 0 0-.887-1.333 1.435 1.435 0 0 0-.553-.107h-6.42a5.41 5.41 0 0 0-5.4 5.4v4.7a6.587 6.587 0 0 0 1.26 3.88 9.192 9.192 0 0 0-2.82.94 12.27 12.27 0 0 0-9-5.4 8.472 8.472 0 0 0 2.17-5.67V89.89a1.422 1.422 0 0 0-.129-.547 1.424 1.424 0 0 0-.806-.753 1.44 1.44 0 0 0-.555-.09h-8.8a6.83 6.83 0 0 0-6.82 6.82v6.39a8.52 8.52 0 0 0 2.17 5.67 12.261 12.261 0 0 0-9 5.4 9.103 9.103 0 0 0-2.82-.94 6.589 6.589 0 0 0 1.26-3.88V99.3a1.44 1.44 0 0 0-1.44-1.44H78a5.4 5.4 0 0 0-5.4 5.4v4.7a6.589 6.589 0 0 0 1.26 3.88 9.416 9.416 0 0 0-7.86 9.23v4.27a1.439 1.439 0 0 0 1.44 1.44h70.9a1.44 1.44 0 0 0 1.021-.419 1.433 1.433 0 0 0 .419-1.021v-4.27a9.41 9.41 0 0 0-7.87-9.27h-.02zM102.89 81.96a14.48 14.48 0 0 0 5.89-27.71 1.442 1.442 0 0 0-1.943.71 1.432 1.432 0 0 0 .295 1.602c.137.137.299.245.478.318a11.594 11.594 0 0 1 5.6 5.338 11.595 11.595 0 0 1-3.051 14.267 11.598 11.598 0 0 1-18.638-6.594A11.6 11.6 0 0 1 98.12 56.88a1.441 1.441 0 1 0-1.18-2.62 14.48 14.48 0 0 0 5.95 27.68v.02z" fill="#fff"/>
  <path d="M102.89 55.88a1.437 1.437 0 0 0 1.331-.889 1.447 1.447 0 0 0-.313-1.57A1.43 1.43 0 0 0 102.89 53a1.442 1.442 0 0 0-1.44 1.44 1.43 1.43 0 0 0 .422 1.018 1.439 1.439 0 0 0 1.018.422zM102.89 118.14a1.44 1.44 0 0 0-1 2.46 1.45 1.45 0 0 0 2 0 1.442 1.442 0 0 0 .318-1.562 1.44 1.44 0 0 0-1.318-.898z" fill="#fff"/>
  <path d="M102.97 62.07v11.22M108.58 67.68H97.36" stroke="#fff" stroke-width="2.5" stroke-miterlimit="10" stroke-linecap="round"/>
  <defs>
    <filter id="filter0_d" x="0" y="0" width="206" height="206" filterUnits="userSpaceOnUse" color-interpolation-filters="sRGB">
      <feFlood flood-opacity="0" result="BackgroundImageFix"/>
      <feColorMatrix in="SourceAlpha" values="0 0 0 0 0 0 0 0 0 0 0 0 0 0 0 0 0 0 127 0"/>
      <feOffset dy="10"/>
      <feGaussianBlur stdDeviation="20"/>
      <feColorMatrix values="0 0 0 0 0.270588 0 0 0 0 0.682353 0 0 0 0 0.301961 0 0 0 1 0"/>
      <feBlend in2="BackgroundImageFix" result="effect1_dropShadow"/>
      <feBlend in="SourceGraphic" in2="effect1_dropShadow" result="shape"/>
    </filter>
    <linearGradient id="paint0_linear" x1="103" y1="30" x2="103" y2="156" gradientUnits="userSpaceOnUse">
      <stop stop-color="#8BB928"/>
      <stop offset="1" stop-color="#45AE4D"/>
    </linearGradient>
  </defs>
</svg>
