<svg width="206" height="206" viewBox="0 0 206 206" fill="none" xmlns="http://www.w3.org/2000/svg">
  <circle cx="103" cy="93" r="63" fill="url(#paint0_linear)" filter="url(#filter0_d)"/>
  <path d="M106.7 93.68a17.752 17.752 0 0 0 3.55-7.4h6.48a16.768 16.768 0 0 1-10 7.4h-.03zm-18.37-7.4h6.49a17.63 17.63 0 0 0 3.55 7.4 16.76 16.76 0 0 1-10-7.4h-.04zm10-24.9a17.63 17.63 0 0 0-3.55 7.4h-6.45a16.72 16.72 0 0 1 10-7.4zm18.36 7.4h-6.44a17.753 17.753 0 0 0-3.55-7.4 16.728 16.728 0 0 1 10 7.4h-.01zm-5.46 8a36.027 36.027 0 0 0-.66-6.36h7a16.572 16.572 0 0 1 1.59 6.36h-7.93zM109 70.37a35.04 35.04 0 0 1 .71 6.36H95.39c.042-2.137.28-4.266.71-6.36H109zm-6.43-9.54c2.52 0 4.77 3.22 6 7.95H96.48c1.28-4.73 3.54-7.95 6.05-7.95h.04zm-15.06 9.54h7a36.923 36.923 0 0 0-.67 6.36h-7.97a16.581 16.581 0 0 1 1.6-6.36h.04zm-1.6 7.95h7.92c.039 2.139.263 4.27.67 6.37h-7a16.63 16.63 0 0 1-1.6-6.37h.01zm10.19 6.37a35.067 35.067 0 0 1-.71-6.37h14.28a35.035 35.035 0 0 1-.67 6.37H96.1zm6.43 9.5c-2.51 0-4.77-3.23-6.05-8h12.1c-1.28 4.72-3.53 8-6 8h-.05zm15.07-9.5h-7c.408-2.1.629-4.231.66-6.37h7.92a16.622 16.622 0 0 1-1.59 6.37h.01zm1.22-15.5a18.28 18.28 0 0 0-32.57 0v.07a18.22 18.22 0 0 0 0 16.48v.07a18.28 18.28 0 0 0 32.57 0 .534.534 0 0 0 0-.08 18.275 18.275 0 0 0 0-16.47.273.273 0 0 1 0-.07z" fill="#fff"/>
  <path d="M125.06 77.53a22.531 22.531 0 0 0-45.06 0c0 12.44 16.12 47.06 22.53 47.06 6.65 0 22.53-34.62 22.53-47.06z" stroke="#fff" stroke-width="3" stroke-miterlimit="10"/>
  <path d="M106 122.96c9.8.19 17.27 1.24 17.27 2.5s-9.27 3.53-20.59 3.53-20.58-2.13-20.58-3.53c0-1.24 7.23-2.27 16.79-2.49" stroke="#fff" stroke-width="3" stroke-miterlimit="10" stroke-linecap="round"/>
  <defs>
    <filter id="filter0_d" x="0" y="0" width="206" height="206" filterUnits="userSpaceOnUse" color-interpolation-filters="sRGB">
      <feFlood flood-opacity="0" result="BackgroundImageFix"/>
      <feColorMatrix in="SourceAlpha" values="0 0 0 0 0 0 0 0 0 0 0 0 0 0 0 0 0 0 127 0"/>
      <feOffset dy="10"/>
      <feGaussianBlur stdDeviation="20"/>
      <feColorMatrix values="0 0 0 0 0.270588 0 0 0 0 0.682353 0 0 0 0 0.301961 0 0 0 1 0"/>
      <feBlend in2="BackgroundImageFix" result="effect1_dropShadow"/>
      <feBlend in="SourceGraphic" in2="effect1_dropShadow" result="shape"/>
    </filter>
    <linearGradient id="paint0_linear" x1="103" y1="30" x2="103" y2="156" gradientUnits="userSpaceOnUse">
      <stop stop-color="#8BB928"/>
      <stop offset="1" stop-color="#54B45B"/>
    </linearGradient>
  </defs>
</svg>
