<svg xmlns="http://www.w3.org/2000/svg" width="56.4" height="73.6" viewBox="50 32 56.4 73.6">
  <path fill="#FEFEFE" d="M78.2 105.6C62.6 105.6 50 93.3 50 78.1s12.6-27.5 28.2-27.5c15.5 0 28.2 12.3 28.2 27.5s-12.7 27.5-28.2 27.5z"/>
  <path fill="#47B247" d="M78.2 105.6C62.6 105.6 50 93.3 50 78.1s12.6-27.5 28.2-27.5c15.5 0 28.2 12.3 28.2 27.5s-12.7 27.5-28.2 27.5zm0-47.8c-11.4 0-20.8 9.1-20.8 20.3 0 11.2 9.3 20.3 20.8 20.3 11.4 0 20.8-9.1 20.8-20.3-.1-11.2-9.4-20.3-20.8-20.3z"/>
  <path fill="#2E3134" d="M93.5 75.2c-.2-.8-1-1.5-1.9-1.5-.2 0-.4.1-.6.1 0 0-2.4.7-3.7.7-5.1 0-9.1-4-9.1-9v-.3c0-1.1-.9-2-2-2-.1 0-.3.1-.4.1C69.1 64.7 64 70.6 64 77.7c0 8.1 6.7 14.7 14.9 14.7s14.9-6.6 14.9-14.7c0-.9-.2-1.7-.3-2.5z"/>
  <path fill="#96C22B" d="M92.8 49.9c-1.6 0-3-1-3.4-2.5-1.6-4.8-6-8.1-11-8.1-4.8 0-9.2 3.1-10.8 7.6-.7 1.9-2.8 2.9-4.6 2.2-1.9-.7-2.8-2.8-2.1-4.7C63.6 37 70.6 32 78.4 32c8.1 0 15.3 5.3 17.8 13.1.6 1.9-.4 4-2.3 4.6-.3.1-.7.2-1.1.2z"/>
</svg>
