<svg width="206" height="206" viewBox="0 0 206 206" fill="none" xmlns="http://www.w3.org/2000/svg">
  <circle cx="103" cy="93" r="63" fill="url(#paint0_linear)" filter="url(#filter0_d)"/>
  <path d="M93.638 112.067h-20.76a1.148 1.148 0 0 0-.814 1.963c.216.216.509.337.814.337h20.76a1.149 1.149 0 1 0 0-2.3zM70.567 100.527h9.23a1.16 1.16 0 0 0 0-2.31h-9.23a1.16 1.16 0 0 0 0 2.31zM87.868 106.297a1.151 1.151 0 0 0-1.17-1.16h-18.43a1.165 1.165 0 0 0-1.169.686 1.16 1.16 0 0 0 1.169 1.624h18.43a1.149 1.149 0 0 0 1.15-1.15h.02zM134.008 120.137a1.124 1.124 0 0 1-.331.819 1.133 1.133 0 0 1-.819.331h-19a3.35 3.35 0 0 1-2.12-.81l-36.04-36.09a1.66 1.66 0 0 1-.09-2.23l.76-.76 37.22 37.25c.215.214.506.336.81.34h19.61v1.15zm-8.07-12.69h-6.92a1.163 1.163 0 0 0-1.268 1.155 1.16 1.16 0 0 0 1.268 1.155h6.92a7.857 7.857 0 0 1 8 6.92h-19.06l-36.91-36.91 17.41-17.41c1 3 3.16 8.94 6.67 12.46 3.94 3.94 10.78 4.74 13.51 4.91v9.28h-2.73a2.297 2.297 0 0 0-2-1.16 2.312 2.312 0 0 0-2.31 2.31 2.31 2.31 0 0 0 3.467 2c.351-.203.642-.497.843-.85h2.73v6.92h-2.73a2.309 2.309 0 0 0-3.833-.252 2.308 2.308 0 0 0 1.234 3.638 2.312 2.312 0 0 0 2.599-1.076h2.73v1.15a1.18 1.18 0 0 0 .33.82l2.31 2.3a1.152 1.152 0 0 0 1.63-1.63l-2-2v-22.56a1.151 1.151 0 0 0-1.13-1.16c-.09 0-8.8 0-13-4.27-4.2-4.27-6.61-13.18-6.63-13.31a1.149 1.149 0 0 0-1.94-.53l-19.6 19.6-1.58 1.58a4 4 0 0 0 .09 5.48l36.09 36.1a5.555 5.555 0 0 0 3.75 1.49h19a3.424 3.424 0 0 0 3.46-3.46v-2.31a10.265 10.265 0 0 0-6.404-9.626 10.266 10.266 0 0 0-3.996-.754z" fill="#fff"/>
  <path d="M104.018 87.837v13.84a1.15 1.15 0 0 0 .297.889 1.16 1.16 0 0 0 1.326.279 1.16 1.16 0 0 0 .687-1.168v-13.84a1.16 1.16 0 0 0-2.31 0zM112.078 84.137a1.158 1.158 0 0 0 1.116-1.074 1.163 1.163 0 0 0-.946-1.226 22.999 22.999 0 0 1-17.55-13.06 1.154 1.154 0 0 0-2.08 1 25.297 25.297 0 0 0 19.3 14.35l.16.01z" fill="#fff"/>
  <defs>
    <filter id="filter0_d" x="0" y="0" width="206" height="206" filterUnits="userSpaceOnUse" color-interpolation-filters="sRGB">
      <feFlood flood-opacity="0" result="BackgroundImageFix"/>
      <feColorMatrix in="SourceAlpha" values="0 0 0 0 0 0 0 0 0 0 0 0 0 0 0 0 0 0 127 0"/>
      <feOffset dy="10"/>
      <feGaussianBlur stdDeviation="20"/>
      <feColorMatrix values="0 0 0 0 0.270588 0 0 0 0 0.682353 0 0 0 0 0.301961 0 0 0 1 0"/>
      <feBlend in2="BackgroundImageFix" result="effect1_dropShadow"/>
      <feBlend in="SourceGraphic" in2="effect1_dropShadow" result="shape"/>
    </filter>
    <linearGradient id="paint0_linear" x1="103" y1="30" x2="103" y2="156" gradientUnits="userSpaceOnUse">
      <stop stop-color="#8BB928"/>
      <stop offset="1" stop-color="#45AE4D"/>
    </linearGradient>
  </defs>
</svg>
