<svg width="206" height="206" viewBox="0 0 206 206" fill="none" xmlns="http://www.w3.org/2000/svg">
  <circle cx="103" cy="93" r="63" fill="url(#paint0_linear)" filter="url(#filter0_d)"/>
  <path fill-rule="evenodd" clip-rule="evenodd" d="M108.817 93.345a22.746 22.746 0 0 1-8.725 1.728l.02.08a22.791 22.791 0 0 1-22.74-24.58 1.79 1.79 0 1 1 3.57.28 19.22 19.22 0 0 0 32.73 15.12 22.79 22.79 0 0 1-27.51-19.06 23.15 23.15 0 0 1 .32-8.13c-.32.31-.64.65-.94 1a1.79 1.79 0 1 1-2.71-2.34 22.93 22.93 0 0 1 6.53-5.23 1.79 1.79 0 0 1 2.42 2.43 19.23 19.23 0 0 0 26 26 1.787 1.787 0 0 1 2.076.31 1.79 1.79 0 0 1 .354 2.07 23.043 23.043 0 0 1-4 5.38 22.748 22.748 0 0 1-7.395 4.942zm-15.338 10.67a5.13 5.13 0 0 1-3.627 8.758h-28.36a8.471 8.471 0 0 1-1.66-16.78 9.91 9.91 0 0 1 19.55.05 6.8 6.8 0 0 1 5.14 6.47h5.33c1.36 0 2.665.54 3.627 1.502zm-36.057-2.442a4.898 4.898 0 0 0-.83 2.73l.02.02a4.91 4.91 0 0 0 4.9 4.88h28.38a1.553 1.553 0 0 0 1.55-1.55 1.547 1.547 0 0 0-1.55-1.55h-7.4a1.792 1.792 0 0 1-1.69-2.38c.12-.348.18-.713.18-1.08a3.219 3.219 0 0 0-3.21-3.21 1.79 1.79 0 0 1-1.79-1.79 6.33 6.33 0 0 0-12.47-1.56 8.51 8.51 0 0 1 4 2.25 1.799 1.799 0 0 1-1.27 3.06 1.764 1.764 0 0 1-1.26-.53 4.896 4.896 0 0 0-5.35-1.095c-.899.369-1.668.997-2.21 1.805zm77.116 5.593a14.001 14.001 0 0 0-27.736.027 9.326 9.326 0 0 0-7.61 9.15v.72h-2.65a6.8 6.8 0 1 0 0 13.6h36.28a11.814 11.814 0 0 0 11.79-10.963 11.815 11.815 0 0 0-10.074-12.534zm-37.966 19.947h36.28l-.04.03a8.248 8.248 0 0 0 7.144-4.115 8.231 8.231 0 0 0 .003-8.245 8.227 8.227 0 0 0-7.141-4.12 8.24 8.24 0 0 0-7.136 4.13 1.79 1.79 0 0 1-1.55.9 1.791 1.791 0 0 1-1.778-2.029c.032-.233.109-.458.228-.661a11.824 11.824 0 0 1 8.31-5.74 10.39 10.39 0 0 0-20.52 0 9.583 9.583 0 0 1 2.74 1.05 1.8 1.8 0 0 1 .66 2.45 1.789 1.789 0 0 1-2.44.65 5.848 5.848 0 0 0-2.83-.77 5.727 5.727 0 0 0-5.73 5.73c-.001.65.107 1.295.32 1.91a1.8 1.8 0 0 1-.859 2.187 1.793 1.793 0 0 1-.821.203h-4.84a3.22 3.22 0 1 0 0 6.44zm36.28-5.37h-7.34a1.79 1.79 0 1 0 0 3.58h7.34c.474 0 .93-.189 1.265-.525a1.788 1.788 0 0 0-1.265-3.055zm-13.756.524a1.79 1.79 0 1 1 2.53 2.53 1.79 1.79 0 0 1-2.53-2.53zm-50.835-19.474a1.791 1.791 0 0 0-1.86 1.71 1.79 1.79 0 0 0 1.71 1.86h.08a1.803 1.803 0 0 0 1.79-1.66 1.788 1.788 0 0 0-1.72-1.91zm11.35-35.57c.185.059.377.09.57.09a1.79 1.79 0 0 0 1.7-1.22v-.07a1.79 1.79 0 0 0-3.38-1.17v.1a1.81 1.81 0 0 0 1.11 2.27zm28.116.235a1.789 1.789 0 1 1-2.53-2.529 1.789 1.789 0 0 1 2.53 2.53zm25.365 2.675a1.788 1.788 0 0 0 1.265-3.056 1.788 1.788 0 0 0-3.055 1.266 1.788 1.788 0 0 0 1.79 1.79zm6.855 21.385a1.788 1.788 0 0 1-2.919-.58 1.79 1.79 0 1 1 2.919.58zm-61.405 27.615a1.789 1.789 0 0 0-1.266 3.055 1.79 1.79 0 1 0 1.266-3.055zM64.849 75.628a1.792 1.792 0 0 1-2.448-1.665 1.79 1.79 0 1 1 2.448 1.665z" fill="#fff"/>
  <defs>
    <filter id="filter0_d" x="0" y="0" width="206" height="206" filterUnits="userSpaceOnUse" color-interpolation-filters="sRGB">
      <feFlood flood-opacity="0" result="BackgroundImageFix"/>
      <feColorMatrix in="SourceAlpha" values="0 0 0 0 0 0 0 0 0 0 0 0 0 0 0 0 0 0 127 0"/>
      <feOffset dy="10"/>
      <feGaussianBlur stdDeviation="20"/>
      <feColorMatrix values="0 0 0 0 0.270588 0 0 0 0 0.682353 0 0 0 0 0.301961 0 0 0 1 0"/>
      <feBlend in2="BackgroundImageFix" result="effect1_dropShadow"/>
      <feBlend in="SourceGraphic" in2="effect1_dropShadow" result="shape"/>
    </filter>
    <linearGradient id="paint0_linear" x1="103" y1="30" x2="103" y2="156" gradientUnits="userSpaceOnUse">
      <stop stop-color="#8BB928"/>
      <stop offset="1" stop-color="#45AE4D"/>
    </linearGradient>
  </defs>
</svg>
