<svg width="206" height="206" viewBox="0 0 206 206" fill="none" xmlns="http://www.w3.org/2000/svg">
  <circle cx="103" cy="93" r="63" fill="url(#paint0_linear)" filter="url(#filter0_d)"/>
  <path d="M78.834 98.41a1.329 1.329 0 0 0-1.89-.09l-.49.44a1.34 1.34 0 0 0 .331 2.225c.172.079.36.122.549.124.328 0 .645-.121.89-.34l.52-.47a1.327 1.327 0 0 0 .08-1.89h.01zM79.734 97.41c.227.155.495.238.77.24a1.332 1.332 0 0 0 1.1-.58c2.21-3.17 2.54-6.31 3-12a1.34 1.34 0 1 0-2.67-.21c-.42 5.4-.7 8.11-2.51 10.72a1.339 1.339 0 0 0 .33 1.87l-.02-.04zM120.764 82.62a1.35 1.35 0 0 0 1.32 1.06h.28a1.353 1.353 0 0 0 1-1.59l-.18-.78a1.345 1.345 0 0 0-1.63-.97 1.342 1.342 0 0 0-.97 1.63c.05.23.11.45.15.68l.03-.03zM129.214 98.68c-3.93-3.27-4.79-6.45-5.34-12.81a1.338 1.338 0 0 0-.929-1.174 1.337 1.337 0 0 0-1.687.88c-.053.17-.071.347-.054.523.59 6.87 1.68 10.81 6.3 14.65.24.203.545.313.86.31a1.343 1.343 0 0 0 1.267-.889 1.339 1.339 0 0 0-.417-1.49z" fill="#fff"/>
  <path d="M124.274 108.189h-42.85a8.692 8.692 0 0 1 0-1.79c.13-1.2.48-1.81.68-1.92 4.49-2.6 7.06-8.82 7.85-19a12.94 12.94 0 0 1 25.82 0 41.914 41.914 0 0 0 2.39 12h-5a1.348 1.348 0 0 0-.879 2.258c.228.249.542.403.879.432h6.33a13.46 13.46 0 0 0 2 2.68h-13.41a1.35 1.35 0 0 0 0 2.69h16.05c.073.293.123.59.15.89a7.548 7.548 0 0 1 0 1.79l-.01-.03zm-21.42 6.84a5.495 5.495 0 0 1-5.33-4.15h10.66a5.497 5.497 0 0 1-5.33 4.15zm0-48.33a2.002 2.002 0 0 1 1.961 2.39 1.996 1.996 0 0 1-1.571 1.572 2.001 2.001 0 0 1-1.805-3.376 2.002 2.002 0 0 1 1.415-.586zm23.4 36.86l-.06-.1a3.423 3.423 0 0 0-1.24-1.31c-3.62-2.09-5.81-7.78-6.52-16.91a15.78 15.78 0 0 0-11.63-14 4.7 4.7 0 1 0-7.91 0 15.79 15.79 0 0 0-11.63 14c-.7 9.13-2.89 14.82-6.52 16.91-1.05.61-1.73 1.89-2 3.72-.15 1.19-.2 3.68.73 4.61.253.251.593.395.95.4h14.33a8.178 8.178 0 0 0 13.36 4.902 8.18 8.18 0 0 0 2.78-4.902h14.32c.357-.002.698-.146.95-.4.94-.93.89-3.42.73-4.61a6.937 6.937 0 0 0-.67-2.31h.03zM116.274 125.769h-26.85a1.337 1.337 0 0 0-1.34 1.34 1.34 1.34 0 0 0 1.34 1.34h26.85a1.34 1.34 0 0 0 0-2.68z" fill="#fff"/>
  <path d="M103.254 102.819h-.75a1.354 1.354 0 0 0-1.352.802 1.352 1.352 0 0 0 .801 1.821c.177.061.364.083.551.067h.8a1.348 1.348 0 0 0 .878-2.257 1.35 1.35 0 0 0-.878-.433h-.05z" fill="#fff"/>
  <defs>
    <filter id="filter0_d" x="0" y="0" width="206" height="206" filterUnits="userSpaceOnUse" color-interpolation-filters="sRGB">
      <feFlood flood-opacity="0" result="BackgroundImageFix"/>
      <feColorMatrix in="SourceAlpha" values="0 0 0 0 0 0 0 0 0 0 0 0 0 0 0 0 0 0 127 0"/>
      <feOffset dy="10"/>
      <feGaussianBlur stdDeviation="20"/>
      <feColorMatrix values="0 0 0 0 0.270588 0 0 0 0 0.682353 0 0 0 0 0.301961 0 0 0 1 0"/>
      <feBlend in2="BackgroundImageFix" result="effect1_dropShadow"/>
      <feBlend in="SourceGraphic" in2="effect1_dropShadow" result="shape"/>
    </filter>
    <linearGradient id="paint0_linear" x1="103" y1="30" x2="103" y2="156" gradientUnits="userSpaceOnUse">
      <stop stop-color="#8BB928"/>
      <stop offset="1" stop-color="#45AE4D"/>
      <stop offset="1" stop-color="#C4C4C4" stop-opacity="0"/>
    </linearGradient>
  </defs>
</svg>
