<svg width="206" height="206" viewBox="0 0 206 206" fill="none" xmlns="http://www.w3.org/2000/svg">
  <circle cx="103" cy="93" r="63" fill="url(#paint0_linear)" filter="url(#filter0_d)"/>
  <path fill-rule="evenodd" clip-rule="evenodd" d="M131.58 61H75.33A9.34 9.34 0 0 0 66 70.34v33.91a9.338 9.338 0 0 0 9.33 9.33h56.25a9.337 9.337 0 0 0 6.594-2.736 9.337 9.337 0 0 0 2.736-6.594V70.34a9.342 9.342 0 0 0-9.33-9.34zm5.33 43.25a5.333 5.333 0 0 1-5.33 5.33H75.33a5.332 5.332 0 0 1-5.33-5.33V70.34A5.34 5.34 0 0 1 75.33 65h56.25a5.337 5.337 0 0 1 5.33 5.34v33.91zm-.1 20.07c-19.41-8.7-47.47-8.7-66.72 0a2 2 0 0 0 1.62 3.64c18.3-8.26 45-8.26 63.45 0a1.994 1.994 0 0 0 1.561.085 1.997 1.997 0 0 0 1.319-1.844 1.99 1.99 0 0 0-.585-1.45c-.19-.19-.416-.34-.665-.441l.02.01zm-10.041-52.163a1.997 1.997 0 0 1 .751 2.504l-1.95 9.839a2.002 2.002 0 0 1-2 1.61c-.13.01-.26.01-.39 0a2.004 2.004 0 0 1-1.297-.838 1.999 1.999 0 0 1-.313-1.512l1.14-5.76-37.58 23.22 5.49 1.27a2.015 2.015 0 0 1 1.775 2.225 2.013 2.013 0 0 1-2.225 1.775c-.155 0-.31-.02-.46-.06l-10-2.32a2 2 0 0 1-1.73-2.47l2.37-10.25a2.001 2.001 0 1 1 3.9.9l-1.3 5.61 37.34-23.05-5.39-1.07a1.998 1.998 0 0 1 .78-3.92l10.26 2a2 2 0 0 1 .829.296z" fill="#fff"/>
  <defs>
    <filter id="filter0_d" x="0" y="0" width="206" height="206" filterUnits="userSpaceOnUse" color-interpolation-filters="sRGB">
      <feFlood flood-opacity="0" result="BackgroundImageFix"/>
      <feColorMatrix in="SourceAlpha" values="0 0 0 0 0 0 0 0 0 0 0 0 0 0 0 0 0 0 127 0"/>
      <feOffset dy="10"/>
      <feGaussianBlur stdDeviation="20"/>
      <feColorMatrix values="0 0 0 0 0.270588 0 0 0 0 0.682353 0 0 0 0 0.301961 0 0 0 1 0"/>
      <feBlend in2="BackgroundImageFix" result="effect1_dropShadow"/>
      <feBlend in="SourceGraphic" in2="effect1_dropShadow" result="shape"/>
    </filter>
    <linearGradient id="paint0_linear" x1="103" y1="30" x2="103" y2="156" gradientUnits="userSpaceOnUse">
      <stop stop-color="#8BB928"/>
      <stop offset="1" stop-color="#45AE4D"/>
    </linearGradient>
  </defs>
</svg>
