<svg width="206" height="206" viewBox="0 0 206 206" fill="none" xmlns="http://www.w3.org/2000/svg">
  <circle cx="103" cy="93" r="63" fill="url(#paint0_linear)" filter="url(#filter0_d)"/>
  <path d="M118.158 101.984h-9.74v-6.917h6.809a1.568 1.568 0 0 0 0-3.134h-6.809v-6.917h9.74a1.568 1.568 0 1 0 0-3.135H106.85c-.865 0-1.567.702-1.567 1.567v20.103c0 .866.702 1.568 1.567 1.568h11.308a1.568 1.568 0 1 0 0-3.135zM97.198 96.144a7.44 7.44 0 0 0 4.513-6.832c0-4.098-3.334-7.43-7.431-7.43h-7.532c-.866 0-1.568.7-1.568 1.566v20.103a1.568 1.568 0 1 0 3.135 0v-6.809h5.747l2.95 7.39a1.567 1.567 0 1 0 2.912-1.162l-2.726-6.826zm-2.918-2.536h-5.965v-8.592h5.965a4.3 4.3 0 0 1 4.296 4.296 4.3 4.3 0 0 1-4.296 4.296zM136.064 100.623a6.752 6.752 0 0 1-4.085 1.361 6.817 6.817 0 0 1-6.809-6.809v-3.35a6.817 6.817 0 0 1 6.809-6.81c1.489 0 2.903.472 4.089 1.365a1.568 1.568 0 0 0 1.885-2.505 9.859 9.859 0 0 0-5.974-1.994c-5.483 0-9.944 4.46-9.944 9.944v3.35c.001 5.483 4.461 9.944 9.944 9.944a9.857 9.857 0 0 0 5.968-1.99 1.567 1.567 0 1 0-1.883-2.506zM71.67 61.778H59.944c-.866 0-1.568.702-1.568 1.568v11.726a1.567 1.567 0 0 0 3.135 0V64.913h10.16a1.567 1.567 0 1 0 0-3.135zM147.056 110.36c-.865 0-1.567.702-1.567 1.568v10.159h-10.16a1.568 1.568 0 0 0 0 3.135h11.727c.866 0 1.568-.702 1.568-1.567v-11.727c0-.866-.702-1.568-1.568-1.568zM147.056 61.778h-11.727a1.568 1.568 0 0 0 0 3.135h10.16v10.16a1.568 1.568 0 0 0 3.135 0V63.345c0-.866-.702-1.568-1.568-1.568zM71.67 122.087H61.511v-10.159a1.568 1.568 0 1 0-3.135 0v11.727c0 .865.702 1.567 1.568 1.567H71.67a1.568 1.568 0 0 0 0-3.135zM71.67 86.907a6.6 6.6 0 0 0-6.593 6.593 6.6 6.6 0 0 0 6.593 6.593 6.6 6.6 0 0 0 6.593-6.593 6.6 6.6 0 0 0-6.593-6.593zm0 10.051a3.462 3.462 0 0 1-3.458-3.458 3.462 3.462 0 0 1 3.458-3.458A3.462 3.462 0 0 1 75.13 93.5a3.462 3.462 0 0 1-3.459 3.458zM95.124 122.087H78.37a1.568 1.568 0 0 0 0 3.135h16.753a1.568 1.568 0 0 0 0-3.135z" fill="#fff"/>
  <defs>
    <filter id="filter0_d" x="0" y="0" width="206" height="206" filterUnits="userSpaceOnUse" color-interpolation-filters="sRGB">
      <feFlood flood-opacity="0" result="BackgroundImageFix"/>
      <feColorMatrix in="SourceAlpha" values="0 0 0 0 0 0 0 0 0 0 0 0 0 0 0 0 0 0 127 0"/>
      <feOffset dy="10"/>
      <feGaussianBlur stdDeviation="20"/>
      <feColorMatrix values="0 0 0 0 0.270588 0 0 0 0 0.682353 0 0 0 0 0.301961 0 0 0 1 0"/>
      <feBlend in2="BackgroundImageFix" result="effect1_dropShadow"/>
      <feBlend in="SourceGraphic" in2="effect1_dropShadow" result="shape"/>
    </filter>
    <linearGradient id="paint0_linear" x1="103" y1="30" x2="103" y2="156" gradientUnits="userSpaceOnUse">
      <stop stop-color="#8BB928"/>
      <stop offset="1" stop-color="#45AE4C"/>
    </linearGradient>
  </defs>
</svg>
