<svg width="206" height="206" viewBox="0 0 206 206" fill="none" xmlns="http://www.w3.org/2000/svg">
  <circle cx="103" cy="93" r="63" fill="url(#paint0_linear)" filter="url(#filter0_d)"/>
  <path d="M126.45 74.03h-2.68a1.34 1.34 0 1 0 0 2.68h2.68a1.339 1.339 0 0 0 0-2.68zM118.4 74.03h-2.68a1.341 1.341 0 0 0-.948 2.287c.252.252.592.393.948.393h2.68a1.339 1.339 0 0 0 0-2.68zM82.19 71.35a4 4 0 1 0 0 8 4 4 0 0 0 0-8zm0 5.36a1.34 1.34 0 1 1 0-2.679 1.34 1.34 0 0 1 0 2.679zM82.19 87.44a4 4 0 1 0 0 7.998 4 4 0 0 0 0-7.998zm0 5.36a1.34 1.34 0 1 1 0-2.679 1.34 1.34 0 0 1 0 2.679zM82.19 103.53a4.004 4.004 0 0 0-3.696 2.469 4 4 0 1 0 3.696-2.469zm0 5.37a1.342 1.342 0 0 1-.948-2.288 1.337 1.337 0 0 1 1.46-.29 1.338 1.338 0 0 1 .436 2.185 1.338 1.338 0 0 1-.948.393z" fill="#fff"/>
  <path d="M120.39 127.08c10.339 0 18.72-8.381 18.72-18.72 0-10.339-8.381-18.72-18.72-18.72-10.339 0-18.72 8.381-18.72 18.72 0 10.339 8.381 18.72 18.72 18.72z" stroke="#fff" stroke-width="3" stroke-miterlimit="10"/>
  <path fill-rule="evenodd" clip-rule="evenodd" d="M134.5 72.71v5.34a6.716 6.716 0 0 1-2.85 5.37 6.666 6.666 0 0 1 2.73 5.36v4.981a20.349 20.349 0 0 0-2.57-2.09V88.78a4.01 4.01 0 0 0-1.186-2.843 3.993 3.993 0 0 0-2.854-1.157h-51a4 4 0 0 0-4 4v5.38c.004.235.027.47.07.7.035.184.085.365.15.54.01.058.027.115.05.17.056.148.123.292.2.43.037.083.08.163.13.24.07.123.151.24.24.35.064.091.135.178.21.26l.26.27c.102.089.21.172.32.25.082.069.17.132.26.19.139.085.282.162.43.23l.22.1c.19.08.388.14.59.18h.12c.254.049.512.072.77.07h26.149a19.994 19.994 0 0 0-1.34 2.74H76.79a3.997 3.997 0 0 0-4 4v5.35a3.882 3.882 0 0 0 .18 1.13 3.998 3.998 0 0 0 3.84 2.89h24.231c.28.919.623 1.811 1.025 2.67H76.7a6.712 6.712 0 0 1-6.7-6.64v-5.42a6.668 6.668 0 0 1 2.72-5.37 5.689 5.689 0 0 1-.6-.5 7.2 7.2 0 0 1-.47-.49l-.12-.16a4.623 4.623 0 0 1-.32-.42l-.15-.23-.22-.38-.15-.29-.15-.35a4.028 4.028 0 0 1-.076-.204c-.019-.052-.036-.102-.054-.146-.04-.1-.06-.17-.1-.31a2.01 2.01 0 0 0-.045-.134.803.803 0 0 1-.065-.266 2.533 2.533 0 0 1 0-.27c-.08-.15-.08-.31-.08-.47V88.8a6.64 6.64 0 0 1 2.72-5.36 6.67 6.67 0 0 1-2.72-5.37v-5.36A6.7 6.7 0 0 1 76.79 66h51a6.72 6.72 0 0 1 6.71 6.71zm-3.862 8.168a3.997 3.997 0 0 0 1.172-2.828v-5.34a3.997 3.997 0 0 0-4-4h-51a4 4 0 0 0-4 4v5.34a4 4 0 0 0 4 4h51a3.998 3.998 0 0 0 2.828-1.172z" fill="#fff"/>
  <path d="M120.51 120.38s-7.15-6.54-8.5-9.09c-1-1.95-1.29-10.76-1.29-10.76s7.33 1.18 9.79 1.18c2.46 0 9.8-1.21 9.8-1.21s-.23 8.75-1.24 10.67c-1.35 2.6-8.56 9.21-8.56 9.21z" stroke="#fff" stroke-width="3" stroke-linejoin="round"/>
  <defs>
    <filter id="filter0_d" x="0" y="0" width="206" height="206" filterUnits="userSpaceOnUse" color-interpolation-filters="sRGB">
      <feFlood flood-opacity="0" result="BackgroundImageFix"/>
      <feColorMatrix in="SourceAlpha" values="0 0 0 0 0 0 0 0 0 0 0 0 0 0 0 0 0 0 127 0"/>
      <feOffset dy="10"/>
      <feGaussianBlur stdDeviation="20"/>
      <feColorMatrix values="0 0 0 0 0.270588 0 0 0 0 0.682353 0 0 0 0 0.301961 0 0 0 1 0"/>
      <feBlend in2="BackgroundImageFix" result="effect1_dropShadow"/>
      <feBlend in="SourceGraphic" in2="effect1_dropShadow" result="shape"/>
    </filter>
    <linearGradient id="paint0_linear" x1="103" y1="30" x2="103" y2="156" gradientUnits="userSpaceOnUse">
      <stop stop-color="#8BB928"/>
      <stop offset="1" stop-color="#45AE4D"/>
    </linearGradient>
  </defs>
</svg>
