<svg width="192" height="56" viewBox="0 0 192 56" fill="none" xmlns="http://www.w3.org/2000/svg">
  <path d="M5.198 27.643v-4.882h15.841v4.882h4.233v-9.122h-2.854V.276H7.154c0 6.264-.673 13.074-3.56 18.245H.964v9.122h4.234zm6.445-23.03h5.965V18.52H8.693c1.924-3.694 2.63-8.93 2.95-13.908zM41.87 18.778v-4.914c0-5.076-2.95-6.97-7.567-6.97-2.373 0-4.714.61-5.965 1.027v3.855c1.443-.579 3.335-1.157 5.451-1.157 2.406 0 3.624 1.06 3.624 2.602v.546a16.765 16.765 0 0 0-3.655-.417c-3.08 0-6.767 1.22-6.767 5.139 0 3.051 2.501 4.722 5.388 4.722 2.276 0 4.04-.707 5.547-1.895.642 1.156 1.828 1.734 3.4 1.734.865 0 1.763-.193 2.469-.45v-2.923a2.637 2.637 0 0 1-.834.129c-.577 0-1.09-.225-1.09-1.028zm-7.086-2.762c.93 0 1.956.192 2.63.353v2.409c-1.027.9-2.214 1.253-3.464 1.253-1.347 0-2.405-.739-2.405-1.895 0-1.574 1.603-2.12 3.239-2.12zM53.572 22.761v-11.66h4.907V7.343H44.24v3.758h4.907v11.66h4.425zM74.403 22.761V7.343h-4.425v7.002c-.834.354-1.7.482-2.726.482-1.635 0-2.758-.578-2.758-2.409V7.343h-4.457v5.493c0 3.983 2.693 5.75 5.996 5.75 1.54 0 2.726-.193 3.945-.643v4.818h4.425zM82.069 22.761l6.862-8.673v8.673h4.426V7.343h-3.849l-6.862 8.673V7.343h-4.458v15.418h3.88zM101.592 22.761v-6.103h1.796l4.426 6.103h5.002l-5.74-7.805 5.291-7.613h-5.002l-3.913 5.75h-1.86v-5.75h-4.457v15.418h4.457zM.965 47.398c0 5.492 4.2 7.934 8.402 7.934 1.956 0 3.688-.386 5.195-1.028v-3.951c-1.123.674-2.694 1.124-4.33 1.124-2.405 0-4.713-1.349-4.713-4.304 0-3.116 2.34-4.304 4.778-4.304 1.475 0 3.014.45 4.104 1.156v-3.919c-1.378-.739-3.046-1.124-4.746-1.124-4.265 0-8.69 2.505-8.69 8.416zM22.103 54.882v-11.66h6.221v11.66h4.458V39.464H17.646v15.418h4.457zM35.695 47.173c0 5.396 4.04 8.159 8.498 8.159 4.49 0 8.498-2.763 8.498-8.16 0-5.395-4.009-8.158-8.498-8.158-4.458 0-8.498 2.763-8.498 8.159zm12.474 0c0 2.377-1.41 4.176-3.976 4.176-2.533 0-3.944-1.8-3.944-4.176 0-2.377 1.41-4.176 3.944-4.176 2.565 0 3.976 1.799 3.976 4.176zM60.059 54.882v-6.103h1.795l4.426 6.103h5.002l-5.74-7.805 5.291-7.613h-5.002l-3.913 5.75h-1.86v-5.75h-4.457v15.418h4.458zM71.49 47.173c0 5.396 4.04 8.159 8.498 8.159 4.489 0 8.498-2.763 8.498-8.16 0-5.395-4.009-8.158-8.499-8.158-4.457 0-8.497 2.763-8.497 8.159zm12.474 0c0 2.377-1.411 4.176-3.977 4.176-2.533 0-3.944-1.8-3.944-4.176 0-2.377 1.411-4.176 3.944-4.176 2.566 0 3.977 1.799 3.977 4.176zM103.902 36.316v-3.34c-1.699.931-3.271 1.22-4.906 1.22-1.636 0-3.207-.289-4.907-1.22v3.34c1.411.867 2.919 1.285 4.907 1.285s3.495-.418 4.906-1.285zm-8.626 18.566l6.862-8.673v8.673h4.426V39.464h-3.848l-6.863 8.673v-8.673h-4.457v15.418h3.88zM109.476 47.398c0 5.492 4.201 7.934 8.402 7.934 1.956 0 3.688-.386 5.195-1.028v-3.951c-1.122.674-2.694 1.124-4.329 1.124-2.405 0-4.714-1.349-4.714-4.304 0-3.116 2.341-4.304 4.778-4.304 1.475 0 3.014.45 4.105 1.156v-3.919c-1.379-.739-3.047-1.124-4.746-1.124-4.265 0-8.691 2.505-8.691 8.416zM134.11 54.882v-11.66h4.906v-3.758h-14.238v3.758h4.906v11.66h4.426zM150.836 54.882c3.88 0 5.163-1.992 5.163-4.176 0-1.863-1.058-3.083-2.726-3.63 1.507-.578 2.373-1.766 2.373-3.533 0-2.088-1.411-4.08-5.067-4.08h-9.171v15.419h9.428zm-4.971-6.392h3.656c1.091 0 2.053.385 2.053 1.702 0 1.22-.93 1.639-2.053 1.639h-3.656V48.49zm-.032-5.975h3.368c1.026 0 1.956.386 1.956 1.67 0 1.19-.866 1.607-1.924 1.607h-3.4v-3.277zM162.888 54.882l6.863-8.673v8.673h4.425V39.464h-3.848l-6.863 8.673v-8.673h-4.457v15.418h3.88zM181.61 54.882l3.431-4.593h2.502v4.593H192V39.464h-8.338c-4.04 0-6.157 2.505-6.157 5.396 0 2.088 1.059 3.951 3.143 4.85l-4.041 5.172h5.003zm.417-9.893c0-1.285.93-1.992 2.533-1.992h2.983v3.951h-2.983c-1.603 0-2.533-.707-2.533-1.96z" fill="#2E3134"/>
</svg>
