<svg width="206" height="206" viewBox="0 0 206 206" fill="none" xmlns="http://www.w3.org/2000/svg">
  <circle cx="103" cy="93" r="63" fill="url(#paint0_linear)" filter="url(#filter0_d)"/>
  <path fill-rule="evenodd" clip-rule="evenodd" d="M145.437 75.26v-.06a61 61 0 0 0-86.93 0 2 2 0 0 0 2.85 2.8 57 57 0 0 1 81.2 0 4.753 4.753 0 0 1-6.72 6.72 47.511 47.511 0 0 0-67.84 0 8.511 8.511 0 0 0 9.315 13.853 8.509 8.509 0 0 0 2.755-1.852 30.503 30.503 0 0 1 43.65 0c.549.605.852 1.393.85 2.21a3.32 3.32 0 0 1-3.32 3.32 3.298 3.298 0 0 1-2.16-.81 24.286 24.286 0 0 0-14.48-7.14h-.59a4.14 4.14 0 0 0-4.13 4.14v1.79a11.529 11.529 0 0 0-9.48 11.23v6.51a5.088 5.088 0 0 0 5.02 5.089v6.691a2 2 0 0 0 4 0v-6.69h5v6.69a2 2 0 0 0 4 0v-6.691a5.1 5.1 0 0 0 5.04-5.089v-6.52a11.53 11.53 0 0 0-9.51-11.23v-1.86a.162.162 0 0 1 .1-.15h.14c4.6.56 8.87 2.677 12.1 6l.1.11a7.325 7.325 0 0 0 10.097-.244 7.321 7.321 0 0 0 .243-10.096 34.508 34.508 0 0 0-49.37 0 4.499 4.499 0 0 1-7.349-1.42 4.5 4.5 0 0 1 .95-4.91 43.511 43.511 0 0 1 62.149 0 8.751 8.751 0 0 0 14.693-6.248 8.75 8.75 0 0 0-2.323-6.113l-.05-.03zm-39.01 43.801h1.91a1.08 1.08 0 0 0 .42-.081 1.082 1.082 0 0 0 .596-.59c.056-.133.084-.275.084-.419v-6.49h.03a7.5 7.5 0 1 0-15 0v6.49a1.088 1.088 0 0 0 1.09 1.09H106.427z" fill="#fff"/>
  <defs>
    <filter id="filter0_d" x="0" y="0" width="206" height="206" filterUnits="userSpaceOnUse" color-interpolation-filters="sRGB">
      <feFlood flood-opacity="0" result="BackgroundImageFix"/> 
      <feColorMatrix in="SourceAlpha" values="0 0 0 0 0 0 0 0 0 0 0 0 0 0 0 0 0 0 127 0"/>
      <feOffset dy="10"/>
      <feGaussianBlur stdDeviation="20"/>
      <feColorMatrix values="0 0 0 0 0.270588 0 0 0 0 0.682353 0 0 0 0 0.301961 0 0 0 1 0"/>
      <feBlend in2="BackgroundImageFix" result="effect1_dropShadow"/>
      <feBlend in="SourceGraphic" in2="effect1_dropShadow" result="shape"/>
    </filter>
    <linearGradient id="paint0_linear" x1="103" y1="30" x2="103" y2="156" gradientUnits="userSpaceOnUse">
      <stop stop-color="#8BB928"/>
      <stop offset="1" stop-color="#45AE4D"/>
    </linearGradient>
  </defs>
</svg>
