<svg width="43" height="91" viewBox="0 0 43 91" fill="none" xmlns="http://www.w3.org/2000/svg">
  <path d="M35.423 61.96H8.275a5.793 5.793 0 0 1-5.817-5.818V8.31a5.793 5.793 0 0 1 5.817-5.817h27.148a5.793 5.793 0 0 1 5.818 5.817v47.832a5.793 5.793 0 0 1-5.818 5.818z" stroke="#fff" stroke-width="3" stroke-miterlimit="10"/>
  <path d="M27.02 61.96H16.678v17.194H27.02V61.96zM21.85 30.934a9.05 9.05 0 1 0 0-18.098 9.05 9.05 0 0 0 0 18.098zM21.85 51.102a5.56 5.56 0 1 0 0-11.12 5.56 5.56 0 0 0 0 11.12zM2.328 88.203v-3.878c0-2.844 2.327-5.171 5.171-5.171h28.7c2.844 0 5.17 2.327 5.17 5.17v3.879c0 .776-.517 1.293-1.292 1.293H3.62c-.776 0-1.293-.517-1.293-1.293z" stroke="#fff" stroke-width="3" stroke-miterlimit="10"/>
</svg>
