<svg width="113" height="79" viewBox="0 0 113 79" fill="none" xmlns="http://www.w3.org/2000/svg">
  <path d="M54.783 76.509H7.533c-3.347 0-5.906-2.54-5.906-5.862V23.75c0-3.322 2.56-5.862 5.906-5.862h47.25c3.347 0 5.907 2.54 5.907 5.862v46.897c0 3.322-2.56 5.862-5.907 5.862z" stroke="#fff" stroke-width="3" stroke-miterlimit="10"/>
  <path d="M18.361 30.785l-6.693 6.839M11.668 30.785l6.693 6.839" stroke="#fff" stroke-width="3" stroke-miterlimit="10" stroke-linecap="round" stroke-linejoin="round"/>
  <path d="M15.014 13.394v9.574M47.302 13.394v9.574" stroke="#fff" stroke-width="4" stroke-miterlimit="10" stroke-linecap="round" stroke-linejoin="round"/>
  <path d="M34.505 30.785l-6.694 6.839M27.811 30.785l6.694 6.839M50.846 30.785l-6.89 6.839M43.955 30.785l6.89 6.839M18.361 46.417l-6.693 6.839M11.668 46.417l6.693 6.839M34.505 46.417l-6.694 6.839M27.811 46.417l6.694 6.839M47.302 53.451c1.957 0 3.544-1.574 3.544-3.517 0-1.942-1.587-3.517-3.544-3.517s-3.544 1.575-3.544 3.517c0 1.943 1.587 3.517 3.544 3.517zM47.302 68.888c1.957 0 3.544-1.575 3.544-3.517 0-1.943-1.587-3.517-3.544-3.517s-3.544 1.574-3.544 3.517c0 1.942 1.587 3.517 3.544 3.517zM31.158 68.888c1.957 0 3.544-1.575 3.544-3.517 0-1.943-1.587-3.517-3.544-3.517s-3.544 1.574-3.544 3.517c0 1.942 1.587 3.517 3.544 3.517zM15.014 68.888c1.958 0 3.544-1.575 3.544-3.517 0-1.943-1.586-3.517-3.543-3.517-1.958 0-3.544 1.574-3.544 3.517 0 1.942 1.586 3.517 3.543 3.517z" stroke="#fff" stroke-width="3" stroke-miterlimit="10" stroke-linecap="round" stroke-linejoin="round"/>
  <path d="M105.771 52.847H82.455a4.976 4.976 0 0 1-4.997-4.996V6.77a4.976 4.976 0 0 1 4.997-4.997h23.316a4.975 4.975 0 0 1 4.996 4.997v41.08a4.975 4.975 0 0 1-4.996 4.997z" stroke="#fff" stroke-width="3" stroke-miterlimit="10"/>
  <path d="M98.553 52.847h-8.882v14.767h8.882V52.847zM94.113 26.2a7.772 7.772 0 1 0 0-15.544 7.772 7.772 0 0 0 0 15.545zM94.112 43.521a4.775 4.775 0 1 0 0-9.55 4.775 4.775 0 0 0 0 9.55zM77.346 75.386v-3.33a4.454 4.454 0 0 1 4.441-4.442h24.649a4.454 4.454 0 0 1 4.441 4.441v3.331c0 .666-.444 1.11-1.11 1.11h-31.31c-.667 0-1.11-.444-1.11-1.11z" stroke="#fff" stroke-width="3" stroke-miterlimit="10"/>
</svg>
