<svg width="163" height="91" viewBox="0 0 163 91" fill="none" xmlns="http://www.w3.org/2000/svg">
  <path d="M159.855 62.549h-40.907c-.767 0-1.279-.511-1.279-1.279v-6.136c0-2.173 1.662-3.835 3.835-3.835h35.794c2.173 0 3.835 1.662 3.835 3.835v6.136c0 .767-.511 1.279-1.278 1.279z" stroke="#fff" stroke-width="2" stroke-miterlimit="10"/>
  <path d="M124.444 51.044l-4.218-17.386M154.102 51.044l4.346-17.386" stroke="#fff" stroke-width="2" stroke-miterlimit="10" stroke-linecap="round"/>
  <path d="M139.401 46.314a2.429 2.429 0 1 0 0-4.857 2.429 2.429 0 0 0 0 4.857z" stroke="#fff" stroke-width="2" stroke-miterlimit="10"/>
  <path d="M146.048 39.794c-1.662-1.662-4.09-2.684-6.647-2.684-2.557 0-4.986 1.022-6.647 2.684M148.733 37.11c-2.429-2.43-5.753-3.835-9.332-3.835-3.707 0-7.031 1.406-9.332 3.835" stroke="#fff" stroke-width="2" stroke-miterlimit="10" stroke-linecap="round"/>
  <path d="M151.545 34.425c-3.196-3.068-7.414-4.985-12.144-4.985s-8.948 1.917-12.144 4.985M153.974 57.18h-4.602M125.723 57.18h-1.534M132.114 57.18h-1.534" stroke="#fff" stroke-width="2" stroke-miterlimit="10" stroke-linecap="round"/>
  <path d="M95.757 61.96H68.609a5.793 5.793 0 0 1-5.818-5.818V8.31a5.793 5.793 0 0 1 5.818-5.817h27.148a5.793 5.793 0 0 1 5.817 5.817v47.832a5.793 5.793 0 0 1-5.817 5.818z" stroke="#fff" stroke-width="3" stroke-miterlimit="10"/>
  <path d="M87.353 61.96H77.011v17.194h10.342V61.96zM82.183 30.934a9.05 9.05 0 1 0 0-18.099 9.05 9.05 0 0 0 0 18.1zM82.183 51.102a5.56 5.56 0 1 0 0-11.12 5.56 5.56 0 0 0 0 11.12zM62.661 88.203v-3.878c0-2.844 2.328-5.171 5.172-5.171h28.699c2.844 0 5.171 2.327 5.171 5.17v3.879c0 .776-.517 1.293-1.293 1.293H63.954c-.775 0-1.293-.517-1.293-1.293z" stroke="#fff" stroke-width="3" stroke-miterlimit="10"/>
  <path d="M.952 27.125c3.717 0 4.574-1.716 5.29-3.86h3.287v30.449h-4.86V30.556H.952v-3.431zM14.818 30.699c0-4.86 2.573-7.72 7.29-7.72 4.718 0 7.291 2.716 7.291 7.72v15.867c0 4.86-2.573 7.72-7.29 7.72-4.718 0-7.291-2.717-7.291-7.72V30.7zm4.86 16.153c0 2.144 1.001 3.002 2.43 3.002 1.573 0 2.43-.858 2.43-3.002V30.27c0-2.145-1-3.002-2.43-3.002-1.572 0-2.43.857-2.43 3.002v16.582zM32.115 30.699c0-4.86 2.573-7.72 7.29-7.72 4.718 0 7.291 2.716 7.291 7.72v15.867c0 4.86-2.573 7.72-7.29 7.72-4.718 0-7.29-2.717-7.29-7.72V30.7zm4.718 16.153c0 2.144 1 3.002 2.43 3.002 1.572 0 2.43-.858 2.43-3.002V30.27c0-2.145-1-3.002-2.43-3.002-1.573 0-2.43.857-2.43 3.002v16.582zM8.243 65.721l1.143-7.576h2.287v10.578h-1.572v-7.719l-1.144 7.72H7.385l-1.287-7.577v7.576h-1.43v-10.72h2.288l1.287 7.718zM13.818 68.723v-10.72h4.717v1.572h-3.002v2.716h1c1.716 0 2.574 1 2.574 2.716v1.143c0 1.716-.858 2.716-2.573 2.716h-2.716v-.143zm2.716-1.43c.571 0 .857-.285.857-1v-1.43c0-.714-.286-1-.857-1h-1.001v3.43h1zM24.682 58.145h1.43l-4.29 10.721h-1.429l4.289-10.721zM32.544 64.864v1.43c0 1.715-.858 2.715-2.573 2.715-1.715 0-2.573-1-2.573-2.716v-5.575c0-1.715.858-2.716 2.573-2.716 1.715 0 2.573 1 2.573 2.716v1h-1.572v-1.143c0-.715-.286-1-.858-1-.572 0-.858.285-.858 1v5.718c0 .715.286 1 .858 1 .572 0 .858-.285.858-1v-1.572h1.572v.143zM36.118 62.577h2.287v1.572h-2.287v3.145h2.859v1.43h-4.574V58.001h4.574v1.573h-2.859v3.002zM43.122 64.578l-.572 1v3.145h-1.572v-10.72h1.715v4.716l2.145-4.717h1.715l-2.287 4.717 2.287 6.004h-1.715l-1.716-4.145z" fill="#fff"/>
</svg>
