<svg width="162" height="122" viewBox="0 0 162 122" fill="none" xmlns="http://www.w3.org/2000/svg">
  <path d="M82.166 27.208H61.881c-.659 0-1.318-.527-1.318-1.317V3.893c0-.79.527-1.318 1.318-1.318h5.269M96.656 2.575h3.162c.79 0 1.317.527 1.317 1.318V25.89c0 .79-.527 1.317-1.317 1.317h-.922" stroke="#fff" stroke-width="2" stroke-miterlimit="10" stroke-linecap="round" stroke-linejoin="round"/>
  <path d="M85.46 33.267h-9.221v-6.19h7.903c.79 0 1.318.526 1.318 1.316v4.874z" stroke="#fff" stroke-width="2" stroke-miterlimit="10"/>
  <path d="M92.441 33.267H69.257M67.413 26.022s-3.556-5.137-3.161-11.196C64.647 8.766 68.73 2.97 79.927 1.39c11.197-1.581 16.598 5.005 17.52 13.04.922 8.036-1.844 11.724-5.27 12.515-3.424.79-6.454-3.557-3.556-6.85" stroke="#fff" stroke-width="2" stroke-miterlimit="10" stroke-linecap="round"/>
  <path d="M73.604 26.154s1.054-2.898 3.952-2.898c2.898 0 3.556 2.898 3.556 2.898M85.196 6.132c-1.054-.659-2.24-1.054-3.557-1.054-3.688 0-6.718 3.03-6.718 6.718 0 1.976.79 3.82 2.24 5.006M87.567 13.377c-.79.79-.79 2.107 0 2.898" stroke="#fff" stroke-width="2" stroke-miterlimit="10" stroke-linecap="round"/>
  <path d="M90.643 9.122l.121.1" stroke="#fff" stroke-width="2" stroke-linecap="round" stroke-linejoin="round"/>
  <path d="M92.508 96.847H69.192a4.976 4.976 0 0 1-4.996-4.996V50.77a4.976 4.976 0 0 1 4.996-4.997h23.316a4.976 4.976 0 0 1 4.997 4.997v41.08a4.976 4.976 0 0 1-4.997 4.997z" stroke="#fff" stroke-width="3" stroke-miterlimit="10"/>
  <path d="M85.29 96.847h-8.882v14.767h8.882V96.847zM80.85 70.2a7.772 7.772 0 1 0 0-15.544 7.772 7.772 0 0 0 0 15.545zM80.85 87.521a4.775 4.775 0 1 0 0-9.55 4.775 4.775 0 0 0 0 9.55zM64.083 119.386v-3.331a4.454 4.454 0 0 1 4.442-4.441h24.648a4.454 4.454 0 0 1 4.442 4.441v3.331c0 .666-.445 1.111-1.11 1.111H65.193c-.666 0-1.11-.445-1.11-1.111z" stroke="#fff" stroke-width="3" stroke-miterlimit="10"/>
  <path d="M159.661 93.549h-40.907c-.767 0-1.278-.512-1.278-1.279v-6.136c0-2.173 1.661-3.835 3.835-3.835h35.793c2.173 0 3.835 1.662 3.835 3.835v6.136c0 .767-.511 1.279-1.278 1.279z" stroke="#fff" stroke-width="2" stroke-miterlimit="10"/>
  <path d="M124.251 82.044l-4.219-17.386M153.908 82.044l4.347-17.386" stroke="#fff" stroke-width="2" stroke-miterlimit="10" stroke-linecap="round"/>
  <path d="M139.208 77.314a2.428 2.428 0 1 0 0-4.857 2.428 2.428 0 0 0 0 4.857z" stroke="#fff" stroke-width="2" stroke-miterlimit="10"/>
  <path d="M145.855 70.794c-1.662-1.662-4.091-2.684-6.648-2.684-2.556 0-4.985 1.022-6.647 2.684M148.539 68.11c-2.429-2.43-5.752-3.835-9.332-3.835-3.707 0-7.031 1.406-9.332 3.835" stroke="#fff" stroke-width="2" stroke-miterlimit="10" stroke-linecap="round"/>
  <path d="M151.352 65.425c-3.196-3.068-7.415-4.985-12.145-4.985-4.729 0-8.948 1.917-12.144 4.985M153.781 88.18h-4.602M125.529 88.18h-1.534M131.921 88.18h-1.534" stroke="#fff" stroke-width="2" stroke-miterlimit="10" stroke-linecap="round"/>
  <path d="M.759 58.125c3.716 0 4.574-1.716 5.289-3.86h3.288v30.449h-4.86V61.556H.758v-3.431zM14.625 61.699c0-4.86 2.573-7.72 7.29-7.72 4.718 0 7.29 2.716 7.29 7.72v15.867c0 4.86-2.572 7.72-7.29 7.72-4.717 0-7.29-2.717-7.29-7.72V61.7zm4.86 16.153c0 2.144 1 3.002 2.43 3.002 1.573 0 2.43-.858 2.43-3.002V61.27c0-2.145-1-3.002-2.43-3.002-1.572 0-2.43.858-2.43 3.002v16.582zM31.922 61.699c0-4.86 2.573-7.72 7.29-7.72 4.718 0 7.29 2.716 7.29 7.72v15.867c0 4.86-2.572 7.72-7.29 7.72-4.717 0-7.29-2.717-7.29-7.72V61.7zm4.717 16.153c0 2.144 1 3.002 2.43 3.002 1.573 0 2.43-.858 2.43-3.002V61.27c0-2.145-1-3.002-2.43-3.002-1.572 0-2.43.858-2.43 3.002v16.582zM8.05 96.721l1.143-7.576h2.287v10.578H9.908v-7.719l-1.144 7.72H7.19l-1.286-7.577v7.576h-1.43v-10.72h2.288l1.286 7.718zM13.624 99.723v-10.72h4.717v1.572H15.34v2.716h1c1.716 0 2.573 1 2.573 2.716v1.143c0 1.716-.857 2.716-2.573 2.716h-2.716v-.143zm2.716-1.43c.572 0 .858-.285.858-1v-1.43c0-.714-.286-1-.858-1h-1v3.43h1zM24.488 89.145h1.43L21.63 99.866H20.2l4.288-10.721zM32.35 95.864v1.43c0 1.715-.857 2.715-2.573 2.715-1.715 0-2.573-1-2.573-2.716v-5.575c0-1.715.858-2.716 2.573-2.716 1.716 0 2.574 1 2.574 2.716v1h-1.573v-1.143c0-.715-.286-1-.857-1-.572 0-.858.285-.858 1v5.718c0 .715.286 1 .858 1 .571 0 .857-.285.857-1v-1.572h1.573v.143zM35.925 93.576h2.287v1.573h-2.287v3.145h2.859v1.43h-4.575V89.001h4.575v1.573h-2.86v3.001zM42.929 95.578l-.572 1v3.145h-1.572v-10.72H42.5v4.716l2.144-4.717h1.716l-2.287 4.718 2.287 6.003h-1.716l-1.715-4.145z" fill="#fff"/>
</svg>
